#!OML:ASF H:\ManfredETheater\Project 1\Capture day 1\Session 1\subject.ASF
:FULLY-SPECIFIED
:DEGREES
327
root 14.0403 16.8906 -42.6405 -146.117 2.46306 195.382
lowerback 27.6828 -0.780221 -3.79002
upperback 5.65172 -0.796739 2.23764
thorax -8.86798 0.157057 4.91141
lowerneck -9.54942 0.227421 -0.664842
upperneck -15.4521 2.20732 3.18726
head -3.43194 1.76179 1.11633
rclavicle 1.74931e-014 -3.33958e-014
rhumerus -45.0354 -7.32948 -79.3548
rradius 41.4275
rwrist 4.15154
rhand -22.0391 -3.75481
rfingers 7.12502
rthumb 4.371 -33.6897
lclavicle 1.74931e-014 -3.33958e-014
lhumerus -48.6432 -4.10459 77.3485
lradius 77.7417
lwrist 5.87503
lhand -30.7575 1.37012
lfingers 7.12502
lthumb -4.04901 31.3114
rfemur -67.8342 -3.30658 6.68317
rtibia 77.6649
rfoot 15.8883 -11.97
rtoes 6.63508
lfemur -41.4067 3.2912 -24.9665
ltibia 58.1657
lfoot -18.2771 7.46319
ltoes -10.8741
328
root 14.0994 16.9971 -43.1879 -147.207 2.18516 195.025
lowerback 27.8589 -0.88389 -3.84831
upperback 5.62878 -0.941208 2.24595
thorax -8.96371 0.098676 5.00888
lowerneck -9.81863 0.265475 -0.533343
upperneck -14.7754 2.14809 3.00819
head -3.13941 1.70386 1.03783
rclavicle -1.74931e-014 2.22639e-014
rhumerus -45.2906 -7.67815 -78.9328
rradius 42.1274
rwrist 4.13948
rhand -22.6645 -3.68534
rfingers 7.12502
rthumb 3.76712 -33.6318
lclavicle -1.74931e-014 2.22639e-014
lhumerus -48.5538 -3.77295 77.601
lradius 80.8348
lwrist 8.05113
lhand -30.7519 0.56512
lfingers 7.12502
lthumb -4.04353 30.5065
rfemur -67.2169 -3.02095 6.84347
rtibia 71.6776
rfoot 17.0674 -11.9794
rtoes 7.49588
lfemur -37.8287 3.06246 -24.8365
ltibia 56.6207
lfoot -14.9849 7.28004
ltoes -13.16
329
root 14.1562 17.0933 -43.7413 -148.229 1.95105 194.687
lowerback 27.8522 -0.960228 -3.90483
upperback 5.57978 -1.05881 2.23569
thorax -9.00102 0.0468298 5.07125
lowerneck -10.0227 0.302914 -0.424346
upperneck -14.0544 2.0834 2.85583
head -2.84793 1.63934 0.972369
rclavicle 4.45278e-014 6.36111e-015
rhumerus -45.6138 -7.95319 -78.4465
rradius 42.9301
rwrist 3.94959
rhand -23.1048 -3.68703
rfingers 7.12502
rthumb 3.34192 -33.6406
lclavicle 4.45278e-014 6.36111e-015
lhumerus -48.528 -3.54343 77.9468
lradius 83.8513
lwrist 9.97144
lhand -30.2777 -0.0752763
lfingers 7.12502
lthumb -3.58565 29.8743
rfemur -66.3873 -2.72617 6.93593
rtibia 65.4729
rfoot 18.3498 -11.8525
rtoes 7.27307
lfemur -34.3521 2.80612 -24.7328
ltibia 55.0415
lfoot -11.3275 6.95689
ltoes -14.3672
330
root 14.2103 17.1771 -44.2997 -149.165 1.69606 194.379
lowerback 27.6382 -1.03932 -3.89425
upperback 5.50845 -1.16686 2.22442
thorax -8.96319 -0.00892799 5.08458
lowerneck -10.194 0.340505 -0.3463
upperneck -13.2775 2.01671 2.73423
head -2.5484 1.57158 0.922546
rclavicle -1.11319e-014 -3.65764e-014
rhumerus -45.9632 -8.20169 -77.8615
rradius 43.8076
rwrist 3.63975
rhand -23.3098 -3.69196
rfingers 7.12502
rthumb 3.14392 -33.6485
lclavicle -1.11319e-014 -3.65764e-014
lhumerus -48.5591 -3.43361 78.4048
lradius 86.7937
lwrist 11.6723
lhand -29.566 -0.489107
lfingers 7.12502
lthumb -2.89831 29.4709
rfemur -65.3844 -2.4507 6.99624
rtibia 59.1477
rfoot 19.6667 -11.6713
rtoes 5.82577
lfemur -31.0139 2.43991 -24.6125
ltibia 53.4747
lfoot -7.35849 6.497
ltoes -14.5563
331
root 14.2623 17.2456 -44.8627 -150.007 1.38697 194.089
lowerback 27.1975 -1.1332 -3.79774
upperback 5.40556 -1.27724 2.21752
thorax -8.84955 -0.0754706 5.04702
lowerneck -10.2947 0.378325 -0.297782
upperneck -12.4581 1.94629 2.62724
head -2.2517 1.49919 0.882307
rclavicle 1.74931e-014 2.22639e-014
rhumerus -46.3384 -8.42302 -77.1566
rradius 44.727
rwrist 3.21872
rhand -23.237 -3.64403
rfingers 7.12502
rthumb 3.21422 -33.5995
lclavicle 1.74931e-014 2.22639e-014
lhumerus -48.6702 -3.47793 78.9892
lradius 89.6568
lwrist 13.1295
lhand -28.8167 -0.690838
lfingers 7.12502
lthumb -2.17466 29.2778
rfemur -64.252 -2.23506 7.04014
rtibia 52.8135
rfoot 20.9557 -11.5537
rtoes 3.10498
lfemur -27.8447 1.88817 -24.482
ltibia 51.982
lfoot -3.10343 5.81266
ltoes -13.433
332
root 14.3141 17.2961 -45.4276 -150.747 1.02705 193.786
lowerback 26.5432 -1.23551 -3.65833
upperback 5.25059 -1.39919 2.21408
thorax -8.68608 -0.15622 4.98599
lowerneck -10.2868 0.421238 -0.269806
upperneck -11.6009 1.87542 2.51744
head -1.96529 1.4226 0.84418
rclavicle 1.11319e-014 -1.59028e-014
rhumerus -46.7428 -8.60145 -76.3227
rradius 45.6684
rwrist 2.71261
rhand -22.9269 -3.52583
rfingers 7.12502
rthumb 3.51367 -33.4766
lclavicle 1.11319e-014 -1.59028e-014
lhumerus -48.8878 -3.68712 79.7023
lradius 92.4357
lwrist 14.3138
lhand -28.1777 -0.722684
lfingers 7.12502
lthumb -1.55754 29.2514
rfemur -63.1068 -2.085 7.04802
rtibia 46.7195
rfoot 22.1007 -11.7037
rtoes -0.664689
lfemur -24.9339 1.10597 -24.3861
ltibia 50.7398
lfoot 1.33765 4.76656
ltoes -10.7492
333
root 14.3665 17.3272 -45.9945 -151.378 0.602462 193.439
lowerback 25.6573 -1.35199 -3.50159
upperback 5.06161 -1.54496 2.21437
thorax -8.43856 -0.256701 4.91814
lowerneck -10.2555 0.465692 -0.271128
upperneck -10.6833 1.80452 2.40554
head -1.66793 1.34518 0.810409
rclavicle 1.11319e-014 -3.18055e-015
rhumerus -47.1079 -8.73712 -75.3649
rradius 46.6017
rwrist 2.17038
rhand -22.4634 -3.3325
rfingers 7.12502
rthumb 3.96132 -33.2754
lclavicle 1.11319e-014 -3.18055e-015
lhumerus -49.1625 -4.05429 80.539
lradius 95.0976
lwrist 15.1576
lhand -27.7405 -0.689774
lfingers 7.12502
lthumb -1.13524 29.287
rfemur -61.9861 -2.03081 7.02102
rtibia 40.938
rfoot 23.1288 -12.1791
rtoes -5.18643
lfemur -22.2821 0.0463973 -24.3697
ltibia 49.7334
lfoot 5.81545 3.31737
ltoes -6.98115
334
root 14.4348 17.3015 -46.5567 -151.906 0.100673 193.006
lowerback 24.5648 -1.48513 -3.36824
upperback 4.82814 -1.73107 2.21298
thorax -8.12543 -0.383277 4.8653
lowerneck -10.1851 0.51105 -0.302077
upperneck -9.7077 1.73379 2.29477
head -1.36339 1.26678 0.781997
rclavicle 1.90833e-014 -1.27222e-014
rhumerus -47.4235 -8.80685 -74.2955
rradius 47.4992
rwrist 1.64251
rhand -21.9568 -3.06755
rfingers 7.12502
rthumb 4.45053 -33.0008
lclavicle 1.90833e-014 -1.27222e-014
lhumerus -49.497 -4.56811 81.4839
lradius 97.6147
lwrist 15.6064
lhand -27.5058 -0.732027
lfingers 7.12502
lthumb -0.908613 29.2458
rfemur -61.0883 -2.11023 6.93344
rtibia 35.7433
rfoot 24.0045 -13.1503
rtoes -9.87738
lfemur -19.9675 -1.30788 -24.4781
ltibia 49.1606
lfoot 10.0213 1.46306
ltoes -2.41932
335
root 14.4918 17.2919 -47.123 -152.419 -0.473245 192.463
lowerback 23.4185 -1.62475 -3.31638
upperback 4.55807 -1.95412 2.20574
thorax -7.81205 -0.528113 4.85815
lowerneck -10.0785 0.552836 -0.365052
upperneck -8.67329 1.65927 2.1859
head -1.05105 1.18591 0.759665
rclavicle -7.95139e-015 2.54444e-014
rhumerus -47.6799 -8.81841 -73.1163
rradius 48.3564
rwrist 1.19465
rhand -21.4724 -2.74578
rfingers 7.12502
rthumb 4.91818 -32.6687
lclavicle -7.95139e-015 2.54444e-014
lhumerus -49.8799 -5.20719 82.5226
lradius 99.9573
lwrist 15.6362
lhand -27.4494 -0.988184
lfingers 7.12502
lthumb -0.85413 28.9899
rfemur -60.0975 -2.31058 6.8282
rtibia 31.1479
rfoot 24.5599 -14.6071
rtoes -14.363
lfemur -17.8255 -2.91589 -24.7766
ltibia 48.8732
lfoot 13.8243 -0.773689
ltoes 2.52759
336
root 14.5531 17.264 -47.6872 -152.896 -1.06432 191.803
lowerback 22.1911 -1.74376 -3.42248
upperback 4.25969 -2.19271 2.18542
thorax -7.47235 -0.680405 4.92322
lowerneck -9.94031 0.584393 -0.463194
upperneck -7.60515 1.57772 2.0883
head -0.737624 1.10252 0.747064
rclavicle 4.6118e-014 4.6118e-014
rhumerus -47.8482 -8.77313 -71.8392
rradius 49.1629
rwrist 0.859727
rhand -21.0704 -2.38607
rfingers 7.12502
rthumb 5.30637 -32.2996
lclavicle 4.6118e-014 4.6118e-014
lhumerus -50.2803 -5.94708 83.628
lradius 102.088
lwrist 15.3104
lhand -27.5239 -1.73394
lfingers 7.12502
lthumb -0.926096 28.2438
rfemur -59.1102 -2.6358 6.73571
rtibia 27.073
rfoot 25.0333 -16.3987
rtoes -18.2855
lfemur -15.8422 -4.65887 -25.2907
ltibia 48.775
lfoot 17.0589 -3.27199
ltoes 7.30847
337
root 14.6159 17.2209 -48.2472 -153.364 -1.73973 191.081
lowerback 20.9659 -1.8734 -3.58975
upperback 3.93787 -2.45547 2.16976
thorax -7.14527 -0.843083 5.0284
lowerneck -9.80511 0.604942 -0.586156
upperneck -6.50387 1.4896 1.9861
head -0.416095 1.0177 0.738255
rclavicle -1.11319e-014 1.59028e-015
rhumerus -47.9079 -8.68289 -70.459
rradius 49.9249
rwrist 0.658035
rhand -20.7697 -2.01706
rfingers 7.12502
rthumb 5.59672 -31.9232
lclavicle -1.11319e-014 1.59028e-015
lhumerus -50.6729 -6.74313 84.7739
lradius 103.992
lwrist 14.6843
lhand -27.6285 -2.9262
lfingers 7.12502
lthumb -1.02709 27.0511
rfemur -58.2807 -3.20021 6.84952
rtibia 23.9562
rfoot 25.3057 -18.193
rtoes -21.4382
lfemur -14.0644 -6.47141 -25.9404
ltibia 49.0527
lfoot 19.4675 -5.82437
ltoes 11.3957
338
root 14.689 17.181 -48.8112 -153.522 -2.14336 190.24
lowerback 19.4605 -1.91049 -4.15089
upperback 3.56723 -2.68499 2.08801
thorax -6.69975 -0.99258 5.25888
lowerneck -9.76145 0.650204 -0.69231
upperneck -5.38276 1.4486 1.97108
head -0.0750188 0.961499 0.757195
rclavicle -7.15625e-014 1.74931e-014
rhumerus -48.0062 -8.58114 -69.3332
rradius 50.6511
rwrist 0.151405
rhand -20.4368 -1.31561
rfingers 7.12502
rthumb 5.91809 -31.213
lclavicle -7.15625e-014 1.74931e-014
lhumerus -51.1042 -7.58654 85.9867
lradius 106.235
lwrist 13.8752
lhand -27.7578 -3.503
lfingers 7.12502
lthumb -1.15195 26.4736
rfemur -58.813 -2.89128 5.71656
rtibia 21.9682
rfoot 23.3781 -22.2157
rtoes -25.9112
lfemur -12.632 -8.35994 -26.8005
ltibia 49.6732
lfoot 23.5233 -8.87501
ltoes 21.7173
339
root 14.7474 17.118 -49.3666 -154.404 -3.41994 189.352
lowerback 18.7588 -1.66931 -3.96913
upperback 3.2429 -3.31173 2.1038
thorax -6.64093 -1.70692 5.34207
lowerneck -9.56906 0.633308 -0.882393
upperneck -4.14336 1.32317 1.9557
head 0.281807 0.859551 0.788306
rclavicle -5.56597e-014 -4.77083e-015
rhumerus -47.9352 -8.42389 -67.7795
rradius 51.3393
rwrist 0.568504
rhand -20.503 -0.919579
rfingers 7.12502
rthumb 5.85416 -30.8187
lclavicle -5.56597e-014 -4.77083e-015
lhumerus -51.5257 -8.44276 87.202
lradius 107.661
lwrist 12.7276
lhand -27.7523 -5.76923
lfingers 7.12502
lthumb -1.14671 24.2074
rfemur -57.8249 -4.80492 7.06869
rtibia 21.1387
rfoot 22.7794 -23.0641
rtoes -28.3673
lfemur -10.8132 -10.4641 -27.6942
ltibia 51.1498
lfoot 22.8411 -11.6056
ltoes 21.4507
